<svg xmlns="http://www.w3.org/2000/svg" width="960" height="600" viewBox="0 0 960 600" role="img" aria-labelledby="title desc">
  <title id="title">Synthetic IDX answer with source citation</title>
  <desc id="desc">A synthetic product proof visual showing an answer, cited source pages, and a source document viewer.</desc>
  <defs>
    <linearGradient id="bg" x1="0" y1="0" x2="1" y2="1">
      <stop offset="0" stop-color="#f6f1e8"/>
      <stop offset="1" stop-color="#dfe9e1"/>
    </linearGradient>
    <filter id="shadow" x="-12%" y="-12%" width="124%" height="124%">
      <feDropShadow dx="0" dy="18" stdDeviation="18" flood-color="#17342c" flood-opacity="0.16"/>
    </filter>
  </defs>
  <rect width="960" height="600" rx="28" fill="url(#bg)"/>
  <rect x="56" y="52" width="848" height="496" rx="22" fill="#fffdf8" stroke="#d8cab7" filter="url(#shadow)"/>
  <rect x="56" y="52" width="848" height="54" rx="22" fill="#203f39"/>
  <circle cx="88" cy="80" r="6" fill="#e6b85c"/>
  <circle cx="112" cy="80" r="6" fill="#f3d6a6"/>
  <circle cx="136" cy="80" r="6" fill="#83b29b"/>
  <text x="170" y="85" fill="#f7efe1" font-family="Georgia, serif" font-size="20">IDX source-backed answer</text>
  <rect x="88" y="138" width="360" height="64" rx="14" fill="#eef5ee" stroke="#c9d8cc"/>
  <text x="112" y="166" fill="#203f39" font-family="Arial, sans-serif" font-size="16" font-weight="700">Question</text>
  <text x="112" y="188" fill="#55665e" font-family="Arial, sans-serif" font-size="14">Which vendor obligation changed in the renewal packet?</text>
  <rect x="88" y="224" width="360" height="224" rx="16" fill="#fffaf0" stroke="#dccfb8"/>
  <text x="112" y="258" fill="#203f39" font-family="Georgia, serif" font-size="24">Answer with citations</text>
  <text x="112" y="294" fill="#40524b" font-family="Arial, sans-serif" font-size="15">The renewal packet adds a 24-hour incident</text>
  <text x="112" y="318" fill="#40524b" font-family="Arial, sans-serif" font-size="15">notice requirement and keeps quarterly access</text>
  <text x="112" y="342" fill="#40524b" font-family="Arial, sans-serif" font-size="15">review language from the prior agreement.</text>
  <rect x="112" y="378" width="128" height="34" rx="17" fill="#203f39"/>
  <text x="132" y="400" fill="#fff8e8" font-family="Arial, sans-serif" font-size="13">Open page 14</text>
  <rect x="250" y="378" width="120" height="34" rx="17" fill="#f1e4ce" stroke="#d2b987"/>
  <text x="269" y="400" fill="#5f4b24" font-family="Arial, sans-serif" font-size="13">Page 22</text>
  <rect x="492" y="138" width="348" height="330" rx="18" fill="#fdfbf5" stroke="#d8cab7"/>
  <rect x="522" y="170" width="190" height="18" rx="9" fill="#2f4f48"/>
  <rect x="522" y="206" width="260" height="12" rx="6" fill="#d8cab7"/>
  <rect x="522" y="230" width="230" height="12" rx="6" fill="#d8cab7"/>
  <rect x="522" y="254" width="286" height="12" rx="6" fill="#d8cab7"/>
  <rect x="522" y="296" width="280" height="62" rx="10" fill="#fff3cf" stroke="#deb758"/>
  <text x="544" y="331" fill="#3d3524" font-family="Arial, sans-serif" font-size="15" font-weight="700">Cited excerpt highlighted</text>
  <rect x="522" y="390" width="242" height="12" rx="6" fill="#d8cab7"/>
  <rect x="522" y="414" width="286" height="12" rx="6" fill="#d8cab7"/>
  <path d="M384 394 C442 394, 440 328, 522 328" fill="none" stroke="#d18b2f" stroke-width="5" stroke-linecap="round"/>
  <circle cx="522" cy="328" r="8" fill="#d18b2f"/>
  <text x="88" y="502" fill="#6f786f" font-family="Arial, sans-serif" font-size="13">Synthetic/redacted demo visual. Replace with a live product screenshot when approved.</text>
</svg>
